
<svg 
xmlns="http://www.w3.org/2000/svg" 
width="100%" height="auto"
preserveAspectRatio="none" 
viewBox="0 0 798 427" 
fill="none">
<path d="M0 80C0 35.8172 35.8172 0 80 0H718C762.183 0 798 35.8172 798 80V347C798 391.183 762.183 427 718 427H669.471C634.428 427 606.02 398.592 606.02 363.549C606.02 328.527 577.613 300.128 542.591 300.101C430.793 300.016 373.981 300.017 256.655 300.103C221.633 300.129 193.239 328.528 193.239 363.55C193.239 398.593 164.832 427 129.79 427H80C35.8172 427 0 391.183 0 347V80Z" fill="#242424"/>
</svg>