<?xml version="1.0" encoding="utf-8" ?>
<svg 
baseProfile="full" 
height="304px" 
version="1.1" 
width="221px" 
xmlns="http://www.w3.org/2000/svg" 
xmlns:ev="http://www.w3.org/2001/xml-events" 
xmlns:xlink="http://www.w3.org/1999/xlink">
<defs />
<path d="M 220.517 145.286 L 220.517 144.504 L 220.517 146.46 L 219 155 L 220.908 145.677 L 218 166 L 217 167 L 217 173 L 216 174 L 216 178 L 215 179 L 215 183 L 214 184 L 214 187 L 213 188 L 213 190 L 212 191 L 212 193 L 211 194 L 211 196 L 210 197 L 210 199 L 209 200 L 209 202 L 208 203 L 208 204 L 207 205 L 207 207 L 206 208 L 206 209 L 205 210 L 205 211 L 204 212 L 204 213 L 203 214 L 203 216 L 201 218 L 201 219 L 200 220 L 200 221 L 199 222 L 199 223 L 198 224 L 198 225 L 196 227 L 196 228 L 195 229 L 195 230 L 193 232 L 193 233 L 191 235 L 191 236 L 188 239 L 188 240 L 185 243 L 185 244 L 180 249 L 180 250 L 164 266 L 163 266 L 159 270 L 158 270 L 154 274 L 153 274 L 151 276 L 150 276 L 148 278 L 147 278 L 145 280 L 144 280 L 142 282 L 141 282 L 140 283 L 139 283 L 138 284 L 137 284 L 135 286 L 134 286 L 133 287 L 132 287 L 131 288 L 130 288 L 129 289 L 128 289 L 127 290 L 126 290 L 125 291 L 123 291 L 122 292 L 121 292 L 120 293 L 118 293 L 117 294 L 116 294 L 115 295 L 113 295 L 112 296 L 110 296 L 109 297 L 107 297 L 106 298 L 104 298 L 103 299 L 100 299 L 99 300 L 96 300 L 95 301 L 89.114 303.283 L 220 301 Z" fill="black" /></svg>