<svg width="182" height="35" viewBox="0 0 182 35" fill="none" xmlns="http://www.w3.org/2000/svg">
<path d="M62.675 0.717497V33H56.5134V6.46101C55.9706 6.62239 55.2371 6.86445 54.3128 7.1872C53.4033 7.49528 52.369 7.87672 51.21 8.3315C50.051 8.78629 48.804 9.31443 47.469 9.91592C46.1487 10.5027 44.8063 11.1629 43.442 11.8964C42.0776 12.6153 40.7206 13.4002 39.3709 14.2511C38.0359 15.0873 36.7815 15.9822 35.6079 16.9358C36.5908 18.1828 37.3464 19.4004 37.8745 20.5887C38.4026 21.7624 38.7474 22.804 38.9088 23.7136C39.0848 24.6231 39.1728 25.4227 39.1728 26.1122C39.1728 26.3909 39.1435 26.831 39.0848 27.4325C39.0408 28.034 38.8941 28.7162 38.6447 29.4791C38.41 30.2273 38.1166 30.8801 37.7645 31.4376C37.4124 31.9951 37.0676 32.4278 36.7302 32.7359C36.0407 33.3814 35.2485 33.8509 34.3536 34.1443C33.4587 34.4377 32.5491 34.5844 31.6249 34.5844C30.6273 34.5844 29.6663 34.423 28.7421 34.1003C27.8179 33.7922 27.0403 33.3374 26.4095 32.7359C25.6906 32.0611 25.1038 31.1588 24.649 30.0292C24.2089 28.8996 23.9888 27.6306 23.9888 26.2222C23.9888 24.8138 24.2603 23.3174 24.8031 21.733C25.3605 20.1339 26.2701 18.5349 27.5318 16.9358C26.4902 16.0849 25.3825 15.278 24.2089 14.5151C23.0499 13.7523 21.8543 13.0334 20.622 12.3586C19.4043 11.669 18.172 11.0309 16.925 10.4441C15.678 9.84257 14.453 9.29976 13.25 8.81563C12.0617 8.31683 10.9027 7.86938 9.7731 7.47328C8.65814 7.07717 7.6092 6.73975 6.62627 6.46101V33H0.464649V0.717497H6.05412C7.18375 1.02558 8.43075 1.41435 9.79511 1.8838C11.1595 2.33859 12.5825 2.85939 14.0642 3.44622C15.5606 4.03304 17.0864 4.68588 18.6414 5.40473C20.2112 6.10892 21.7516 6.87178 23.2627 7.69333C24.7737 8.51488 26.2334 9.38778 27.6418 10.312C29.0648 11.2363 30.3779 12.1972 31.5808 13.1948C32.9745 12.0358 34.5663 10.8768 36.3561 9.71787C38.1459 8.5589 40.1118 7.44394 42.2537 6.37299C44.4102 5.28737 46.7282 4.26777 49.2075 3.31418C51.7015 2.34593 54.3348 1.48036 57.1076 0.717497H62.675ZM33.5614 26.3763C33.5614 25.3493 33.3853 24.3737 33.0332 23.4495C32.6811 22.5106 32.197 21.601 31.5808 20.7208C30.9647 21.601 30.4806 22.5106 30.1285 23.4495C29.7764 24.3737 29.6003 25.3493 29.6003 26.3763C29.6003 26.7283 29.6223 27.0804 29.6663 27.4325C29.725 27.7846 29.8204 28.1074 29.9524 28.4008C30.0991 28.6942 30.3045 28.9363 30.5686 29.127C30.8326 29.303 31.1774 29.391 31.6029 29.391C32.0136 29.391 32.3437 29.2957 32.5931 29.105C32.8572 28.9143 33.0552 28.6722 33.1873 28.3788C33.334 28.0854 33.4293 27.7626 33.4733 27.4105C33.532 27.0438 33.5614 26.699 33.5614 26.3763ZM66.504 6.7911V0.739502H72.3356V6.7911H66.504ZM72.3356 9.0797V33H66.504V9.0797H72.3356ZM81.2699 0.717497L91.0405 22.3272V0.739502H96.674V33H90.9965L81.2479 11.4123V33H75.5924V0.739502L81.2699 0.717497ZM99.9969 6.7911V0.739502H105.828V6.7911H99.9969ZM105.828 9.0797V33H99.9969V9.0797H105.828ZM172.264 0.717497V33H166.102V6.46101C165.559 6.62239 164.826 6.86445 163.902 7.1872C162.992 7.49528 161.958 7.87672 160.799 8.3315C159.64 8.78629 158.393 9.31443 157.058 9.91592C155.738 10.5027 154.395 11.1629 153.031 11.8964C151.666 12.6153 150.309 13.4002 148.96 14.2511C147.625 15.0873 146.37 15.9822 145.197 16.9358C146.18 18.1828 146.935 19.4004 147.463 20.5887C147.992 21.7624 148.336 22.804 148.498 23.7136C148.674 24.6231 148.762 25.4227 148.762 26.1122C148.762 26.3909 148.732 26.831 148.674 27.4325C148.63 28.034 148.483 28.7162 148.234 29.4791C147.999 30.2273 147.705 30.8801 147.353 31.4376C147.001 31.9951 146.656 32.4278 146.319 32.7359C145.63 33.3814 144.837 33.8509 143.942 34.1443C143.048 34.4377 142.138 34.5844 141.214 34.5844C140.216 34.5844 139.255 34.423 138.331 34.1003C137.407 33.7922 136.629 33.3374 135.998 32.7359C135.279 32.0611 134.693 31.1588 134.238 30.0292C133.798 28.8996 133.578 27.6306 133.578 26.2222C133.578 24.8138 133.849 23.3174 134.392 21.733C134.949 20.1339 135.859 18.5349 137.121 16.9358C136.079 16.0849 134.971 15.278 133.798 14.5151C132.639 13.7523 131.443 13.0334 130.211 12.3586C128.993 11.669 127.761 11.0309 126.514 10.4441C125.267 9.84257 124.042 9.29976 122.839 8.81563C121.651 8.31683 120.492 7.86938 119.362 7.47328C118.247 7.07717 117.198 6.73975 116.215 6.46101V33H110.054V0.717497H115.643C116.773 1.02558 118.02 1.41435 119.384 1.8838C120.748 2.33859 122.171 2.85939 123.653 3.44622C125.149 4.03304 126.675 4.68588 128.23 5.40473C129.8 6.10892 131.34 6.87178 132.852 7.69333C134.363 8.51488 135.822 9.38778 137.231 10.312C138.654 11.2363 139.967 12.1972 141.17 13.1948C142.563 12.0358 144.155 10.8768 145.945 9.71787C147.735 8.5589 149.701 7.44394 151.843 6.37299C153.999 5.28737 156.317 4.26777 158.796 3.31418C161.29 2.34593 163.924 1.48036 166.696 0.717497H172.264ZM143.15 26.3763C143.15 25.3493 142.974 24.3737 142.622 23.4495C142.27 22.5106 141.786 21.601 141.17 20.7208C140.554 21.601 140.069 22.5106 139.717 23.4495C139.365 24.3737 139.189 25.3493 139.189 26.3763C139.189 26.7283 139.211 27.0804 139.255 27.4325C139.314 27.7846 139.409 28.1074 139.541 28.4008C139.688 28.6942 139.893 28.9363 140.157 29.127C140.422 29.303 140.766 29.391 141.192 29.391C141.602 29.391 141.933 29.2957 142.182 29.105C142.446 28.9143 142.644 28.6722 142.776 28.3788C142.923 28.0854 143.018 27.7626 143.062 27.4105C143.121 27.0438 143.15 26.699 143.15 26.3763ZM176.093 6.7911V0.739502H181.924V6.7911H176.093ZM181.924 9.0797V33H176.093V9.0797H181.924Z" fill="black"/>
</svg>
