<svg width="282" height="62" viewBox="0 0 282 62" fill="none" xmlns="http://www.w3.org/2000/svg">
<path d="M24.3804 2.34076C37.6713 2.34076 48.747 13.0809 48.747 26.3718C48.747 39.5955 37.6713 50.4028 24.3804 50.4028C11.0895 50.4028 0.0137707 39.5955 0.0137707 26.3718C0.0137707 13.0809 11.0895 2.34076 24.3804 2.34076ZM31.2272 48.7917C42.4372 45.3683 45.9277 32.7487 42.303 20.8675C38.6782 9.05333 28.7436 0.528366 17.5336 3.95178C6.32359 7.37519 2.83305 19.9948 6.45784 31.8089C10.0826 43.6902 20.0172 52.2151 31.2272 48.7917ZM102.524 45.5697C102.792 47.9862 103.396 48.926 104.403 49.5301C104.403 49.6644 104.403 50 104.403 50H96.1467C96.1467 50 96.1467 49.6644 96.1467 49.5301C97.1536 48.926 97.4892 47.7849 97.2878 45.5697C97.0193 43.3546 96.0795 32.0103 95.7439 28.5198C95.2069 23.4854 93.2603 17.7797 88.0245 18.9208C81.8489 20.2633 81.0434 30.6678 80.9763 37.716V45.5697C80.9763 47.9191 81.4461 48.926 82.453 49.5301C82.453 49.6644 82.453 50 82.453 50H74.1966C74.1966 50 74.1966 49.6644 74.1966 49.5301C75.2035 48.926 75.6733 47.9191 75.6733 45.5697V28.5198C75.6733 23.4182 73.3239 17.9139 68.0881 18.9208C60.5701 20.3304 60.2344 34.3597 60.2344 40.0654V45.5697C60.2344 47.9191 60.7714 48.926 61.7783 49.5301C61.7783 49.6644 61.7783 50 61.7783 50H53.4547C53.4547 50 53.4547 49.6644 53.4547 49.5301C54.4616 48.926 54.9986 47.9191 54.9986 45.5697V22.8812C54.9986 20.5318 54.7972 19.8606 53.4547 19.6592C53.4547 19.5249 53.4547 19.1893 53.4547 19.1893L59.7645 17.7125H60.2344V32.6144C60.9728 25.4991 62.9866 17.7125 71.0417 17.7125C76.2103 17.7125 80.6406 22.1428 80.9091 29.5267L80.9763 30.265C81.7818 23.7539 84.2654 17.7125 91.0451 17.7125C96.348 17.7125 100.107 21.673 100.913 29.5267C101.651 36.0379 102.255 43.0861 102.524 45.5697ZM124.966 17.7125C128.591 17.7125 130.672 18.9879 132.954 21.673L128.859 27.4458L128.39 27.1773C128.255 23.3511 126.376 18.3838 122.751 18.9208C116.173 19.9277 115.3 37.2461 115.3 42.9518V45.5697C115.3 47.9191 115.77 48.926 116.777 49.5301C116.777 49.6644 116.777 50 116.777 50H108.453C108.453 50 108.453 49.6644 108.453 49.5301C109.527 48.926 109.997 47.9191 109.997 45.5697V22.8812C109.997 20.5318 109.796 19.8606 108.453 19.6592C108.453 19.5249 108.453 19.1893 108.453 19.1893L114.763 17.7125H115.3V35.7022C115.971 27.58 117.851 17.7125 124.966 17.7125ZM141.782 45.5697C141.782 47.9191 142.252 48.926 143.326 49.5301C143.326 49.6644 143.326 50 143.326 50H135.002C135.002 50 135.002 49.6644 135.002 49.5301C136.009 48.926 136.479 47.9191 136.479 45.5697V22.8812C136.479 20.5318 136.277 19.8606 135.002 19.6592C135.002 19.5249 135.002 19.1893 135.002 19.1893L141.312 17.7125H141.782V45.5697ZM138.962 12.2754C137.217 12.2754 135.807 10.8657 135.807 9.12046C135.807 7.37519 137.217 5.96555 138.962 5.96555C140.708 5.96555 142.117 7.37519 142.117 9.12046C142.117 10.8657 140.708 12.2754 138.962 12.2754ZM179.529 18.2495C176.642 21.2031 174.293 24.4922 171.809 30.6678C171.809 30.6678 166.439 44.0258 164.023 50C161.606 56.0413 158.586 61.0757 153.283 61.0757C149.658 61.0757 147.04 59.3976 145.362 56.3098L150.598 51.5439L151 51.8795C150.329 55.6386 151.068 60.8072 154.759 60.4045C158.25 60.0017 161.002 55.5714 163.217 50.6041L154.625 30.3993C151.806 23.821 150.396 20.9346 147.174 18.2495V17.7125H157.444V18.2495C155.766 20.0619 156.303 21.8743 157.847 25.6334L165.835 44.2943L171.34 30.6007C173.823 24.4251 174.629 20.7332 171.608 18.2495V17.7125H179.529V18.2495ZM207.418 49.5301C207.418 49.6644 207.418 50 207.418 50H200.638V40.6024C198.893 46.5095 195.201 50.4028 188.757 50.4028C183.253 50.4028 177.883 47.7849 177.01 42.9518C175.869 36.105 179.964 32.0774 185.132 29.9294C183.387 26.0361 185.468 17.7125 194.463 17.7125C200.034 17.7125 205.941 20.6661 205.941 28.9225V45.5697C205.941 47.9191 206.411 48.926 207.418 49.5301ZM193.859 18.3838C187.817 18.3838 183.79 24.2237 185.804 29.6609C189.428 28.3184 193.456 27.8485 196.611 27.8485C198.155 27.8485 199.497 28.117 200.638 28.4527V27.9828C200.638 22.8812 198.625 18.3838 193.859 18.3838ZM190.368 49.5301C196.208 49.1945 199.296 44.2272 200.638 39.3941V29.0568C200.303 28.9225 198.692 28.4527 196.611 28.4527C189.294 28.4527 179.359 32.0774 182.246 43.8916C183.118 47.5163 187.012 49.7315 190.368 49.5301ZM243.372 45.5697C243.641 47.9862 244.245 48.926 245.252 49.5301C245.252 49.6644 245.252 50 245.252 50H236.928C236.928 50 236.928 49.6644 236.928 49.5301C238.002 48.926 238.271 47.7849 238.069 45.5697C237.868 43.3546 236.861 32.0103 236.525 28.5198C236.055 23.4854 233.572 17.7797 227.799 18.9208C220.281 20.3976 218.871 34.4268 218.871 40.0654V45.5697C218.871 47.9191 219.341 48.926 220.415 49.5301C220.415 49.6644 220.415 50 220.415 50H212.092C212.092 50 212.092 49.6644 212.092 49.5301C213.098 48.926 213.568 47.9191 213.568 45.5697V22.8812C213.568 20.5318 213.367 19.8606 212.092 19.6592C212.092 19.5249 212.092 19.1893 212.092 19.1893L218.401 17.7125H218.871V34.3597C219.744 26.8416 222.026 17.7125 230.753 17.7125C236.257 17.7125 240.956 21.4716 241.761 29.5267C242.432 36.0379 243.104 43.0861 243.372 45.5697ZM274.515 28.3184C278.341 29.3253 281.832 33.2186 281.295 39.327C280.892 44.0929 276.663 50.4028 267.131 50.4028C257.868 50.4028 248.94 45.8382 248.671 34.7625C248.336 23.1497 258.875 18.1153 266.258 17.7125C271.964 17.444 279.818 20.1962 280.758 28.3184C280.153 28.3184 275.992 28.3184 275.992 28.3184H274.515ZM263.238 18.5181C258.673 19.3907 255.72 23.2168 254.511 27.7814H275.924C275.052 21.9415 269.816 17.2427 263.238 18.5181ZM280.69 39.4613C281.496 32.4802 276.864 28.3184 271.763 28.3184H254.377C253.504 31.8761 253.706 35.8365 254.847 39.0585C257.331 46.1067 262.365 49.1945 269.212 48.926C274.985 48.6575 280.019 44.6971 280.69 39.4613Z" fill="black"/>
</svg>
