<svg width="183" height="47" viewBox="0 0 183 47" fill="none" xmlns="http://www.w3.org/2000/svg">
<path d="M50.5594 0.549023C49.4854 1.15315 49.0155 2.09291 49.0155 4.50944V42.5697C49.0155 44.9191 49.4854 45.926 50.5594 46.5301C50.5594 46.6644 50.5594 47 50.5594 47H42.2358C42.2358 47 42.2358 46.6644 42.2358 46.5301C43.2427 45.926 43.7797 44.9191 43.7797 42.5697V2.02579L25.253 34.1119H24.6489L5.45095 4.84507V38.9449C5.45095 41.8313 7.46472 45.389 9.67987 46.5301C9.67987 46.6644 9.67987 47 9.67987 47H0.685028C0.685028 47 0.685028 46.6644 0.685028 46.5301C2.90018 45.389 4.91395 41.8313 4.91395 38.9449V4.17381L1.89329 0.0120161H7.9346L27.1997 29.7487L44.3167 0.0120161H50.5594C50.5594 0.0120161 50.5594 0.414773 50.5594 0.549023ZM62.7254 42.5697C62.7254 44.9191 63.1953 45.926 64.2693 46.5301C64.2693 46.6644 64.2693 47 64.2693 47H55.9457C55.9457 47 55.9457 46.6644 55.9457 46.5301C56.9526 45.926 57.4225 44.9191 57.4225 42.5697V19.8812C57.4225 17.5318 57.2211 16.8606 55.9457 16.6592C55.9457 16.5249 55.9457 16.1893 55.9457 16.1893L62.2555 14.7125H62.7254V42.5697ZM59.9061 9.27536C58.1609 9.27536 56.7512 7.86572 56.7512 6.12046C56.7512 4.37519 58.1609 2.96555 59.9061 2.96555C61.6514 2.96555 63.061 4.37519 63.061 6.12046C63.061 7.86572 61.6514 9.27536 59.9061 9.27536ZM100.271 42.5697C100.54 44.9862 101.144 45.926 102.151 46.5301C102.151 46.6644 102.151 47 102.151 47H93.8272C93.8272 47 93.8272 46.6644 93.8272 46.5301C94.9012 45.926 95.1697 44.7849 94.9683 42.5697C94.7669 40.3546 93.76 29.0103 93.4244 25.5198C92.9545 20.4854 90.4709 14.7797 84.6981 15.9208C77.18 17.3976 75.7704 31.4268 75.7704 37.0654V42.5697C75.7704 44.9191 76.2402 45.926 77.3142 46.5301C77.3142 46.6644 77.3142 47 77.3142 47H68.9907C68.9907 47 68.9907 46.6644 68.9907 46.5301C69.9975 45.926 70.4674 44.9191 70.4674 42.5697V19.8812C70.4674 17.5318 70.266 16.8606 68.9907 16.6592C68.9907 16.5249 68.9907 16.1893 68.9907 16.1893L75.3005 14.7125H75.7704V31.3597C76.643 23.8416 78.9253 14.7125 87.6516 14.7125C93.1559 14.7125 97.8547 18.4716 98.6602 26.5267C99.3315 33.0379 100.003 40.0861 100.271 42.5697ZM112.283 42.5697C112.283 44.9191 112.753 45.926 113.827 46.5301C113.827 46.6644 113.827 47 113.827 47H105.503C105.503 47 105.503 46.6644 105.503 46.5301C106.51 45.926 106.98 44.9191 106.98 42.5697V19.8812C106.98 17.5318 106.779 16.8606 105.503 16.6592C105.503 16.5249 105.503 16.1893 105.503 16.1893L111.813 14.7125H112.283V42.5697ZM109.464 9.27536C107.719 9.27536 106.309 7.86572 106.309 6.12046C106.309 4.37519 107.719 2.96555 109.464 2.96555C111.209 2.96555 112.619 4.37519 112.619 6.12046C112.619 7.86572 111.209 9.27536 109.464 9.27536ZM168.423 0.549023C167.349 1.15315 166.879 2.09291 166.879 4.50944V42.5697C166.879 44.9191 167.349 45.926 168.423 46.5301C168.423 46.6644 168.423 47 168.423 47H160.099C160.099 47 160.099 46.6644 160.099 46.5301C161.106 45.926 161.643 44.9191 161.643 42.5697V2.02579L143.116 34.1119H142.512L123.314 4.84507V38.9449C123.314 41.8313 125.328 45.389 127.543 46.5301C127.543 46.6644 127.543 47 127.543 47H118.548C118.548 47 118.548 46.6644 118.548 46.5301C120.763 45.389 122.777 41.8313 122.777 38.9449V4.17381L119.757 0.0120161H125.798L145.063 29.7487L162.18 0.0120161H168.423C168.423 0.0120161 168.423 0.414773 168.423 0.549023ZM180.589 42.5697C180.589 44.9191 181.059 45.926 182.133 46.5301C182.133 46.6644 182.133 47 182.133 47H173.809C173.809 47 173.809 46.6644 173.809 46.5301C174.816 45.926 175.286 44.9191 175.286 42.5697V19.8812C175.286 17.5318 175.084 16.8606 173.809 16.6592C173.809 16.5249 173.809 16.1893 173.809 16.1893L180.119 14.7125H180.589V42.5697ZM177.769 9.27536C176.024 9.27536 174.614 7.86572 174.614 6.12046C174.614 4.37519 176.024 2.96555 177.769 2.96555C179.515 2.96555 180.924 4.37519 180.924 6.12046C180.924 7.86572 179.515 9.27536 177.769 9.27536Z" fill="black"/>
</svg>
