<svg width="126" height="55" viewBox="0 0 126 55" fill="none" xmlns="http://www.w3.org/2000/svg">
<g clip-path="url(#clip0_138_3644)">
<path d="M17.216 34.2813C15.3536 34.2813 13.5296 34.0672 11.7448 33.6391C9.95974 33.2109 8.34938 32.5301 6.9136 31.5958C5.47782 30.6225 4.3137 29.377 3.42118 27.859C2.56746 26.341 2.14062 24.5113 2.14062 22.3706H10.2896C10.2896 22.5651 10.3284 22.8377 10.406 23.1879C10.5224 23.5385 10.7359 23.9276 11.0463 24.3558C11.3567 24.7839 11.7836 25.1926 12.3268 25.5817C12.8701 25.9713 13.5879 26.302 14.4805 26.5745C15.4119 26.8081 16.5373 26.9247 17.8567 26.9247C18.3998 26.9247 18.9623 26.9052 19.5446 26.8666C20.1654 26.7886 20.7279 26.6716 21.2325 26.516C21.7371 26.3215 22.1445 26.0489 22.4547 25.6987C22.7653 25.3486 22.9204 24.8814 22.9204 24.2973C22.9204 23.4799 22.5325 22.8377 21.7566 22.3706C21.0191 21.9034 20.0293 21.5338 18.7877 21.2612C17.585 20.95 16.2461 20.6384 14.7716 20.3273C13.3356 20.0157 11.9 19.6266 10.4642 19.1594C9.02843 18.6922 7.70908 18.0695 6.50616 17.2912C5.34199 16.4735 4.43008 15.4421 3.77043 14.1966C3.14952 12.9122 2.89731 11.3162 3.01374 9.40889C3.16897 7.50157 3.82862 5.86674 4.99275 4.5044C6.15692 3.14207 7.80612 2.09109 9.94035 1.35153C12.0746 0.611968 14.6356 0.242188 17.6239 0.242188C20.0293 0.242188 22.2802 0.670342 24.3755 1.52669C26.5101 2.38305 28.2369 3.68701 29.5563 5.43858C30.9141 7.1902 31.5933 9.40889 31.5933 12.0949H23.7352C23.7352 11.1994 23.5024 10.4793 23.0371 9.93433C22.5714 9.35047 21.97 8.92232 21.2325 8.64983C20.4951 8.33846 19.7192 8.14384 18.9044 8.06597C18.0891 7.94922 17.3521 7.8908 16.6924 7.8908C15.2568 7.8908 14.0536 8.06597 13.0835 8.41629C12.1522 8.76661 11.6866 9.44781 11.6866 10.4598C11.6866 11.3551 12.0746 12.0559 12.8507 12.5616C13.6268 13.0287 14.6356 13.4179 15.8776 13.7295C17.1193 14.0021 18.4775 14.2937 19.952 14.6053C21.4654 14.8779 22.9593 15.228 24.4338 15.6562C25.9083 16.0843 27.2277 16.6875 28.392 17.4663C29.5947 18.2056 30.5262 19.1984 31.1859 20.4439C31.8845 21.6893 32.1562 23.2854 32.0007 25.2316C31.8845 27.1388 31.1859 28.7738 29.9054 30.1363C28.6637 31.4593 26.9564 32.4911 24.7833 33.2304C22.6487 33.9312 20.1266 34.2813 17.216 34.2813Z" fill="black"/>
<path d="M52.3727 34.5149C46.94 34.5149 42.7878 32.9773 39.9166 29.9027C37.045 26.7886 35.6094 22.6041 35.6094 17.3493C35.6094 13.885 36.2302 10.888 37.4718 8.35792C38.7134 5.78891 40.5763 3.80375 43.0596 2.4025C45.5433 0.962293 48.6474 0.242188 52.3727 0.242188C57.8054 0.242188 61.9381 1.79914 64.7708 4.9131C67.6036 7.98814 69.0198 12.1334 69.0198 17.3493C69.0198 20.736 68.3795 23.733 67.099 26.341C65.8574 28.9099 63.9949 30.9146 61.5112 32.3546C59.0664 33.7951 56.0202 34.5149 52.3727 34.5149ZM52.2565 26.633C54.2356 26.633 55.8651 26.2244 57.1456 25.4066C58.465 24.5503 59.4354 23.4214 60.0562 22.0204C60.7159 20.5799 61.0455 19.0233 61.0455 17.3493C61.0455 15.6367 60.7159 14.0601 60.0562 12.6201C59.4354 11.1799 58.465 10.0317 57.1456 9.17531C55.8651 8.319 54.2356 7.8908 52.2565 7.8908C49.4237 7.8908 47.2506 8.78607 45.7373 10.5766C44.2628 12.367 43.5253 14.6248 43.5253 17.3493C43.5253 18.9843 43.8359 20.5219 44.4567 21.9619C45.1164 23.3634 46.0863 24.4918 47.3668 25.3486C48.6473 26.2049 50.2774 26.633 52.2565 26.633Z" fill="black"/>
<path d="M74.3242 33.6977V4.91322L82.473 0.826172V33.6977H74.3242ZM74.3242 33.6977V26.7497H96.6174V33.6977H74.3242Z" fill="black"/>
<path d="M8.96361 51.9888C8.08219 51.9888 7.26059 51.847 6.49887 51.5628C5.74806 51.2681 5.09512 50.8537 4.54019 50.3187C3.98521 49.7837 3.54994 49.1561 3.23436 48.4359C2.9297 47.7152 2.77734 46.9241 2.77734 46.0616C2.77734 45.1995 2.9297 44.4079 3.23436 43.6876C3.54994 42.9674 3.98521 42.3398 4.54019 41.8048C5.10604 41.2699 5.76437 40.8608 6.51522 40.5767C7.26603 40.2819 8.08763 40.1348 8.97992 40.1348C9.97017 40.1348 10.8625 40.3094 11.6568 40.6587C12.462 40.9968 13.1367 41.499 13.6808 42.1652L11.9833 43.7368C11.5915 43.2892 11.1563 42.9563 10.6775 42.7378C10.1987 42.5087 9.67633 42.3943 9.11049 42.3943C8.57729 42.3943 8.08762 42.4816 7.64148 42.6563C7.19533 42.8309 6.80901 43.0818 6.48257 43.4093C6.15612 43.7368 5.90037 44.1242 5.71541 44.5719C5.54127 45.0195 5.45422 45.5159 5.45422 46.0616C5.45422 46.6076 5.54127 47.104 5.71541 47.5517C5.90037 47.9993 6.15612 48.3867 6.48257 48.7142C6.80901 49.0418 7.19533 49.2926 7.64148 49.4673C8.08762 49.6419 8.57729 49.7292 9.11049 49.7292C9.67633 49.7292 10.1987 49.6202 10.6775 49.4017C11.1563 49.1725 11.5915 48.8286 11.9833 48.3703L13.6808 49.942C13.1367 50.6081 12.462 51.1156 11.6568 51.4649C10.8625 51.8141 9.96469 51.9888 8.96361 51.9888Z" fill="black"/>
<path d="M22.4251 51.9241C21.4892 51.9241 20.6567 51.7277 19.9277 51.3346C19.2096 50.9419 18.6383 50.4069 18.2141 49.7301C17.8005 49.0427 17.5938 48.2622 17.5938 47.389C17.5938 46.5048 17.8005 45.7243 18.2141 45.0475C18.6383 44.36 19.2096 43.8251 19.9277 43.443C20.6567 43.0499 21.4892 42.8535 22.4251 42.8535C23.3503 42.8535 24.177 43.0499 24.9061 43.443C25.6352 43.8251 26.2065 44.3543 26.6201 45.0311C27.0337 45.7079 27.2405 46.4937 27.2405 47.389C27.2405 48.2622 27.0337 49.0427 26.6201 49.7301C26.2065 50.4069 25.6352 50.9419 24.9061 51.3346C24.177 51.7277 23.3503 51.9241 22.4251 51.9241ZM22.4251 49.8285C22.8497 49.8285 23.2306 49.7301 23.5677 49.5338C23.9053 49.3374 24.1717 49.0591 24.3675 48.6987C24.5637 48.3278 24.6613 47.8908 24.6613 47.389C24.6613 46.8758 24.5637 46.4392 24.3675 46.0789C24.1717 45.719 23.9053 45.4406 23.5677 45.2438C23.2306 45.0475 22.8497 44.9491 22.4251 44.9491C22.0009 44.9491 21.62 45.0475 21.2828 45.2438C20.9453 45.4406 20.6731 45.719 20.4663 46.0789C20.2705 46.4392 20.1729 46.8758 20.1729 47.389C20.1729 47.8908 20.2705 48.3278 20.4663 48.6987C20.6731 49.0591 20.9453 49.3374 21.2828 49.5338C21.62 49.7301 22.0009 49.8285 22.4251 49.8285Z" fill="black"/>
<path d="M37.5443 42.8535C38.2411 42.8535 38.861 42.9954 39.4054 43.279C39.9604 43.552 40.3956 43.978 40.7111 44.5564C41.0266 45.1237 41.1843 45.855 41.1843 46.7503V51.7933H38.6379V47.143C38.6379 46.4339 38.4801 45.91 38.1646 45.5714C37.8602 45.2332 37.425 45.0639 36.8589 45.0639C36.4564 45.0639 36.0919 45.1512 35.7653 45.3258C35.4498 45.4894 35.1993 45.746 35.0146 46.0953C34.8405 46.4445 34.7535 46.8922 34.7535 47.4378V51.7933H32.207V42.9847H34.639V45.4242L34.1821 44.6871C34.4976 44.0981 34.9492 43.6451 35.5369 43.3282C36.1246 43.0117 36.7935 42.8535 37.5443 42.8535Z" fill="black"/>
<path d="M49.7132 51.9241C48.9625 51.9241 48.2388 51.8368 47.5424 51.6621C46.8571 51.4764 46.3127 51.2473 45.9102 50.9747L46.759 49.1406C47.1615 49.3919 47.6347 49.5994 48.1791 49.7629C48.7341 49.9158 49.278 49.9921 49.8113 49.9921C50.399 49.9921 50.8122 49.9212 51.0516 49.7793C51.3022 49.6375 51.4272 49.4407 51.4272 49.1898C51.4272 48.9824 51.3291 48.8295 51.1334 48.7315C50.9482 48.6221 50.6982 48.5405 50.3827 48.486C50.0672 48.431 49.7185 48.3765 49.3381 48.322C48.9678 48.2675 48.5927 48.1966 48.2118 48.1093C47.8309 48.0109 47.4827 47.869 47.1668 47.6838C46.8513 47.4981 46.5959 47.2467 46.3997 46.9303C46.215 46.6138 46.1222 46.2047 46.1222 45.7026C46.1222 45.1459 46.28 44.6548 46.5959 44.2288C46.922 43.8033 47.3899 43.47 47.9993 43.2303C48.609 42.979 49.3381 42.8535 50.1865 42.8535C50.7852 42.8535 51.3945 42.9191 52.0149 43.0499C52.6353 43.1811 53.1518 43.3721 53.5654 43.623L52.7166 45.4406C52.2924 45.1893 51.8625 45.0204 51.4272 44.9327C51.0026 44.8347 50.5895 44.7855 50.1865 44.7855C49.6209 44.7855 49.2073 44.8618 48.9462 45.0147C48.685 45.1676 48.5542 45.3639 48.5542 45.6042C48.5542 45.8227 48.647 45.9862 48.8317 46.0952C49.0279 46.2047 49.2833 46.292 49.5992 46.3572C49.9147 46.4228 50.2576 46.4831 50.6275 46.5376C51.0083 46.581 51.3892 46.6519 51.7701 46.7503C52.151 46.8487 52.4934 46.9906 52.7983 47.1758C53.1138 47.3505 53.3696 47.596 53.5654 47.9129C53.7611 48.2183 53.8592 48.6221 53.8592 49.1242C53.8592 49.6703 53.6962 50.1561 53.3696 50.5816C53.0431 50.9964 52.5699 51.324 51.9495 51.5637C51.3402 51.804 50.5948 51.9241 49.7132 51.9241Z" fill="black"/>
<path d="M62.3986 51.9237C61.6695 51.9237 61.0169 51.7819 60.4398 51.4983C59.8742 51.2141 59.4333 50.7833 59.1178 50.2045C58.8023 49.6154 58.6445 48.8677 58.6445 47.9618V42.9844H61.191V47.585C61.191 48.3163 61.343 48.8566 61.6479 49.2059C61.9633 49.5441 62.4043 49.7134 62.9699 49.7134C63.3618 49.7134 63.71 49.6314 64.0145 49.4678C64.3193 49.2932 64.5588 49.0313 64.7329 48.682C64.907 48.3217 64.9941 47.874 64.9941 47.3395V42.9844H67.5405V51.793H65.1244V49.3694L65.5654 50.0737C65.2716 50.6849 64.8363 51.149 64.2593 51.4655C63.6937 51.7708 63.0733 51.9237 62.3986 51.9237Z" fill="black"/>
<path d="M73.1641 51.7933V39.6445H75.7105V51.7933H73.1641Z" fill="black"/>
<path d="M85.5813 51.9229C84.5474 51.9229 83.7423 51.661 83.1652 51.1371C82.5886 50.6021 82.3001 49.811 82.3001 48.7632V41.0352H84.8465V48.7304C84.8465 49.1014 84.9446 49.3908 85.1403 49.5982C85.3361 49.7946 85.603 49.8925 85.9401 49.8925C86.3426 49.8925 86.6855 49.7835 86.9683 49.5654L87.6541 51.3663C87.3929 51.552 87.0775 51.6938 86.7072 51.7922C86.3484 51.8795 85.9728 51.9229 85.5813 51.9229ZM80.9453 45.1447V43.1799H87.0337V45.1447H80.9453Z" fill="black"/>
<path d="M92.3492 51.794V42.9854H94.8957V51.794H92.3492ZM93.6223 41.7572C93.1543 41.7572 92.7734 41.6207 92.48 41.3482C92.1862 41.0751 92.0391 40.7365 92.0391 40.3327C92.0391 39.9289 92.1862 39.5908 92.48 39.3177C92.7734 39.0447 93.1543 38.9082 93.6223 38.9082C94.0902 38.9082 94.4711 39.0394 94.7649 39.3013C95.0587 39.5522 95.2059 39.8797 95.2059 40.2835C95.2059 40.7095 95.0587 41.064 94.7649 41.3482C94.4821 41.6207 94.1012 41.7572 93.6223 41.7572Z" fill="black"/>
<path d="M105.861 42.8535C106.557 42.8535 107.178 42.9954 107.722 43.279C108.277 43.552 108.712 43.978 109.027 44.5564C109.343 45.1237 109.501 45.855 109.501 46.7503V51.7933H106.955V47.143C106.955 46.4339 106.797 45.91 106.481 45.5714C106.177 45.2332 105.741 45.0639 105.175 45.0639C104.773 45.0639 104.408 45.1512 104.082 45.3258C103.766 45.4894 103.516 45.746 103.331 46.0953C103.157 46.4445 103.07 46.8922 103.07 47.4378V51.7933H100.523V42.9847H102.955V45.4242L102.499 44.6871C102.814 44.0981 103.266 43.6451 103.853 43.3282C104.441 43.0117 105.11 42.8535 105.861 42.8535Z" fill="black"/>
<path d="M119.267 55.1007C118.44 55.1007 117.64 54.997 116.867 54.7895C116.106 54.5927 115.469 54.2927 114.958 53.8889L115.969 52.0553C116.34 52.3607 116.808 52.6009 117.373 52.7755C117.95 52.9612 118.516 53.0539 119.071 53.0539C119.974 53.0539 120.627 52.8518 121.03 52.448C121.443 52.0442 121.65 51.4441 121.65 50.6472V49.321L121.813 47.1107L121.78 44.8839V42.9847H124.196V50.3196C124.196 51.9569 123.772 53.1629 122.923 53.9381C122.074 54.7128 120.856 55.1007 119.267 55.1007ZM118.875 51.3674C118.059 51.3674 117.319 51.1928 116.655 50.8435C116.002 50.4832 115.475 49.9868 115.072 49.3534C114.68 48.7094 114.484 47.9621 114.484 47.1107C114.484 46.2482 114.68 45.5004 115.072 44.8675C115.475 44.2235 116.002 43.7267 116.655 43.3774C117.319 43.0281 118.059 42.8535 118.875 42.8535C119.615 42.8535 120.268 43.0064 120.834 43.3118C121.399 43.6066 121.84 44.0706 122.156 44.7035C122.471 45.3258 122.629 46.128 122.629 47.1107C122.629 48.0818 122.471 48.884 122.156 49.5174C121.84 50.1397 121.399 50.6033 120.834 50.9091C120.268 51.2145 119.615 51.3674 118.875 51.3674ZM119.381 49.2718C119.827 49.2718 120.225 49.1845 120.573 49.0099C120.921 48.8242 121.193 48.5676 121.389 48.24C121.585 47.9129 121.683 47.5362 121.683 47.1107C121.683 46.6741 121.585 46.2974 121.389 45.9809C121.193 45.6534 120.921 45.4021 120.573 45.2274C120.225 45.0422 119.827 44.9491 119.381 44.9491C118.935 44.9491 118.538 45.0422 118.189 45.2274C117.841 45.4021 117.564 45.6534 117.357 45.9809C117.161 46.2974 117.063 46.6741 117.063 47.1107C117.063 47.5362 117.161 47.9129 117.357 48.24C117.564 48.5676 117.841 48.8242 118.189 49.0099C118.538 49.1845 118.935 49.2718 119.381 49.2718Z" fill="black"/>
<path d="M101.449 22.1406H109.938V33.6963H101.449V22.1406Z" fill="black"/>
<path d="M125.702 13.0195V19.7095H101.449V13.0195H125.702Z" fill="black"/>
<path d="M125.702 0.855469V7.54557H101.449V0.855469H125.702Z" fill="black"/>
</g>
<defs>
<clipPath id="clip0_138_3644">
<rect width="126" height="55" fill="white"/>
</clipPath>
</defs>
</svg>
