<svg width="334" height="42" viewBox="0 0 334 42" fill="none" xmlns="http://www.w3.org/2000/svg">
<path d="M16.86 41.46C13.7627 41.46 10.926 40.7393 8.35 39.298C5.774 37.826 3.75 35.8327 2.278 33.318C0.806 30.7727 0.0700001 27.9667 0.0700001 24.9C0.0700001 21.8333 0.806 19.0427 2.278 16.528C3.75 13.9827 5.774 11.9893 8.35 10.548C10.926 9.076 13.7627 8.34 16.86 8.34C19.9573 8.34 22.794 9.076 25.37 10.548C27.946 11.9893 29.97 13.9827 31.442 16.528C32.914 19.0427 33.65 21.8333 33.65 24.9C33.65 27.9667 32.914 30.7727 31.442 33.318C29.97 35.8327 27.946 37.826 25.37 39.298C22.794 40.7393 19.9573 41.46 16.86 41.46ZM16.86 37.044C19.068 37.044 21.0767 36.5073 22.886 35.434C24.726 34.3607 26.1673 32.904 27.21 31.064C28.2833 29.1933 28.82 27.1387 28.82 24.9C28.82 22.6613 28.2833 20.622 27.21 18.782C26.1673 16.9113 24.726 15.4393 22.886 14.366C21.0767 13.2927 19.068 12.756 16.86 12.756C14.652 12.756 12.628 13.2927 10.788 14.366C8.97867 15.4393 7.53733 16.9113 6.464 18.782C5.42133 20.622 4.9 22.6613 4.9 24.9C4.9 27.1387 5.42133 29.1933 6.464 31.064C7.53733 32.904 8.97867 34.3607 10.788 35.434C12.628 36.5073 14.652 37.044 16.86 37.044ZM44.4744 20.99C48.4917 20.99 52.0184 21.7567 55.0544 23.29C58.121 24.7927 60.4977 26.9547 62.1844 29.776C63.871 32.5973 64.7144 35.8787 64.7144 39.62V41H39.8744V8.8H62.8744V13.124H44.4744V20.99ZM44.4744 36.768H59.7464C59.1944 33.18 57.5844 30.3587 54.9164 28.304C52.2484 26.2187 48.7677 25.176 44.4744 25.176V36.768ZM98.7508 8.8V41H94.1508V15.01L75.2908 35.572V41H70.6908V8.8H75.2908V29.362L94.1508 8.8H98.7508ZM131.873 8.8V10.18C131.873 13.8907 130.999 17.1567 129.251 19.978C127.503 22.7993 125.08 24.9767 121.983 26.51C118.916 28.0433 115.466 28.81 111.633 28.81V41H107.033V8.8H131.873ZM111.633 24.624C114.362 24.624 116.815 24.1487 118.993 23.198C121.201 22.2473 122.995 20.898 124.375 19.15C125.755 17.402 126.644 15.3627 127.043 13.032H111.633V24.624ZM153.868 41L152.166 36.584L129.534 41.506C129.411 40.218 129.35 39.252 129.35 38.608C129.35 35.2347 130.009 32.1067 131.328 29.224C132.677 26.3107 134.532 23.888 136.894 21.956C139.286 19.9933 141.984 18.6747 144.99 18L141.448 8.8H146.508L158.928 41H153.868ZM150.648 32.628L146.6 22.094C144.238 22.5233 142.138 23.3973 140.298 24.716C138.488 26.004 137.062 27.6447 136.02 29.638C135.008 31.6313 134.456 33.8087 134.364 36.17L150.648 32.628ZM177.889 7.006C175.497 7.006 173.534 6.37733 172.001 5.12C170.467 3.86266 169.609 2.176 169.425 0.0599979H173.197C173.35 1.22533 173.841 2.14533 174.669 2.82C175.497 3.464 176.57 3.786 177.889 3.786C179.207 3.786 180.281 3.464 181.109 2.82C181.937 2.14533 182.427 1.22533 182.581 0.0599979H186.353C186.169 2.176 185.31 3.86266 183.777 5.12C182.243 6.37733 180.281 7.006 177.889 7.006ZM191.919 8.8V41H187.319V15.01L168.459 35.572V41H163.859V8.8H168.459V29.362L187.319 8.8H191.919ZM236.553 13.124H215.807C216.144 17.7853 217.264 21.9407 219.165 25.59C221.097 29.2087 223.581 32.03 226.617 34.054C229.653 36.0473 232.965 37.044 236.553 37.044V41.46C231.922 41.46 227.629 40.1413 223.673 37.504C219.748 34.8667 216.62 31.1867 214.289 26.464C211.958 21.7107 210.793 16.3133 210.793 10.272V8.8H236.553V13.124ZM257.196 24.624C259.343 25.4213 261.214 26.602 262.808 28.166C264.403 29.73 265.63 31.5087 266.488 33.502C267.347 35.4953 267.776 37.5347 267.776 39.62V41H242.292V8.8H266.902V10.18C266.902 13.3387 265.998 16.1907 264.188 18.736C262.379 21.2813 260.048 23.244 257.196 24.624ZM246.8 12.894V22.922H249.744C251.523 22.922 253.302 22.5233 255.08 21.726C256.859 20.898 258.362 19.7327 259.588 18.23C260.846 16.6967 261.582 14.918 261.796 12.894H246.8ZM246.8 36.906H262.716C262.44 35.0353 261.704 33.3333 260.508 31.8C259.312 30.2667 257.825 29.0707 256.046 28.212C254.298 27.3227 252.443 26.878 250.48 26.878H246.8V36.906ZM287.29 41.46C284.192 41.46 281.356 40.7393 278.78 39.298C276.204 37.826 274.18 35.8327 272.708 33.318C271.236 30.7727 270.5 27.9667 270.5 24.9C270.5 21.8333 271.236 19.0427 272.708 16.528C274.18 13.9827 276.204 11.9893 278.78 10.548C281.356 9.076 284.192 8.34 287.29 8.34C290.387 8.34 293.224 9.076 295.8 10.548C298.376 11.9893 300.4 13.9827 301.872 16.528C303.344 19.0427 304.08 21.8333 304.08 24.9C304.08 27.9667 303.344 30.7727 301.872 33.318C300.4 35.8327 298.376 37.826 295.8 39.298C293.224 40.7393 290.387 41.46 287.29 41.46ZM287.29 37.044C289.498 37.044 291.506 36.5073 293.316 35.434C295.156 34.3607 296.597 32.904 297.64 31.064C298.713 29.1933 299.25 27.1387 299.25 24.9C299.25 22.6613 298.713 20.622 297.64 18.782C296.597 16.9113 295.156 15.4393 293.316 14.366C291.506 13.2927 289.498 12.756 287.29 12.756C285.082 12.756 283.058 13.2927 281.218 14.366C279.408 15.4393 277.967 16.9113 276.894 18.782C275.851 20.622 275.33 22.6613 275.33 24.9C275.33 27.1387 275.851 29.1933 276.894 31.064C277.967 32.904 279.408 34.3607 281.218 35.434C283.058 36.5073 285.082 37.044 287.29 37.044ZM312.028 13.124C312.212 16.2827 312.84 19.3647 313.914 22.37H333.326V26.694H315.892C317.793 29.9753 320.246 32.5207 323.252 34.33C326.257 36.1393 329.615 37.044 333.326 37.044V41.46C328.327 41.46 323.834 40.1567 319.848 37.55C315.861 34.9127 312.733 31.2327 310.464 26.51C308.225 21.7567 307.106 16.344 307.106 10.272V8.8H333.326V13.124H312.028Z" fill="black"/>
</svg>
