<svg 
xmlns="http://www.w3.org/2000/svg" 
 width="100%" height="auto"
  preserveAspectRatio="none"
 viewBox="0 0 390 268" 
 fill="none">
<path d="M0 40C0 17.9086 17.9086 0 40 0H350C372.091 0 390 17.9086 390 40V233.51C390 252.558 374.558 268 355.51 268C336.462 268 321.02 252.558 321.02 233.51V219.152C321.02 197.061 302.999 179.153 280.908 179.149C172.544 179.13 228.536 179.033 109.387 179.121C87.3082 179.137 69.2393 197.041 69.2393 219.12V233.38C69.2393 252.5 53.7396 268 34.6197 268C15.4998 268 0 252.5 0 233.38V40Z" fill="#242424"/>
</svg>