<svg width="227" height="188" viewBox="0 0 227 188" fill="none" xmlns="http://www.w3.org/2000/svg">
<g clip-path="url(#clip0_754_567)">
<path d="M223.76 -161.493C225.808 -158.354 227 -154.605 227 -150.577V188.423H-393C-398.33 188.423 -403.497 187.727 -408.416 186.423H-7C15.0914 186.423 33 168.514 33 146.423V76.4229C33 54.3315 50.9086 36.4229 73 36.4229H185C207.091 36.4229 225 18.5142 225 -3.57715V-151.577C225 -155 224.569 -158.322 223.76 -161.493Z" fill="#BAF67C"/>
<path d="M227 188H0.820312C20.153 185.182 35 168.537 35 148.423V78.4229C35 56.3315 52.9086 38.4229 75 38.4229H187C209.091 38.4229 227 20.5142 227 -1.57715V188Z" fill="#151515"/>
</g>
<defs>
<clipPath id="clip0_754_567">
<rect width="227" height="188" fill="white"/>
</clipPath>
</defs>
</svg>
