<svg width="351" height="58" viewBox="0 0 351 58" fill="none" xmlns="http://www.w3.org/2000/svg">
<path d="M41.4763 45H32.7972V31.2582H20.743V45H12.0639V11.2481H20.743V24.5078H32.7972V11.2481H41.4763V45ZM78.8671 45H52.1066V11.2481H78.8671V17.9985H60.7857V24.5078H75.0097V31.2582H60.7857V38.2496H78.8671V45ZM93.5619 45H84.1596L96.9371 11.2481H106.581L119.358 45H109.956L107.786 38.9729H95.7317L93.5619 45ZM97.9015 32.7047H105.616L101.759 21.3737L97.9015 32.7047ZM145.393 11.2481C149.026 11.2481 151.774 12.1964 153.638 14.0929C155.535 15.9573 156.483 18.7057 156.483 22.338V33.9101C156.483 37.5424 155.535 40.3069 153.638 42.2034C151.774 44.0678 149.026 45 145.393 45H126.589V11.2481H145.393ZM147.804 22.338C147.804 19.445 146.358 17.9985 143.465 17.9985H135.268V38.2496H143.465C146.358 38.2496 147.804 36.8031 147.804 33.9101V22.338Z" fill="white"/>
<path d="M2 41.4019C38.8944 27.6579 89.8725 21.8658 165.986 25.6539" stroke="#BAF67C" stroke-width="3.93195" stroke-linecap="round"/>
<path d="M187.217 13.8C190.481 13.8 192.945 16.152 192.945 19.4C192.945 22.632 190.465 25 187.217 25H183.297V13.8H187.217ZM187.233 23.272C189.489 23.272 191.137 21.688 191.137 19.4C191.137 17.128 189.489 15.528 187.233 15.528H185.105V23.272H187.233ZM195.609 12.232C196.297 12.232 196.793 12.696 196.793 13.336C196.793 13.992 196.297 14.472 195.609 14.472C194.953 14.472 194.441 13.992 194.441 13.336C194.441 12.696 194.953 12.232 195.609 12.232ZM194.713 25V16.2H196.521V25H194.713ZM205.467 16.2H207.275V24.888C207.275 27.512 205.627 29.192 203.019 29.192C200.923 29.192 199.019 28.104 198.635 25.912H200.507C200.811 27.048 201.787 27.576 202.971 27.576C204.587 27.576 205.467 26.664 205.467 24.952V23.448C204.811 24.424 203.755 25.096 202.395 25.096C200.043 25.096 198.331 23.192 198.331 20.552C198.331 17.912 200.075 16.008 202.395 16.008C203.755 16.008 204.827 16.696 205.467 17.704V16.2ZM202.779 23.368C204.315 23.368 205.483 22.2 205.483 20.552C205.483 18.92 204.315 17.736 202.779 17.736C201.243 17.736 200.155 18.92 200.155 20.552C200.155 22.2 201.259 23.368 202.779 23.368ZM210.281 12.232C210.969 12.232 211.465 12.696 211.465 13.336C211.465 13.992 210.969 14.472 210.281 14.472C209.625 14.472 209.113 13.992 209.113 13.336C209.113 12.696 209.625 12.232 210.281 12.232ZM209.385 25V16.2H211.193V25H209.385ZM219.659 23.08L219.979 24.552C219.499 24.84 218.475 25.192 217.467 25.192C215.659 25.192 214.251 24.056 214.251 21.624V17.896H212.619V16.2H214.251V14.2L216.059 13.8V16.2H219.675V17.896H216.059V21.528C216.059 22.808 216.651 23.512 217.787 23.512C218.347 23.512 218.971 23.32 219.659 23.08ZM228.061 16.2H229.869V25H228.061V23.528C227.421 24.536 226.365 25.192 224.989 25.192C222.637 25.192 220.925 23.288 220.925 20.6C220.925 17.912 222.669 16.008 224.973 16.008C226.365 16.008 227.421 16.696 228.061 17.704V16.2ZM225.373 23.464C226.909 23.464 228.077 22.296 228.077 20.6C228.077 18.92 226.909 17.736 225.373 17.736C223.837 17.736 222.749 18.92 222.749 20.6C222.749 22.296 223.853 23.464 225.373 23.464ZM231.995 25V12.68H233.819V25H231.995ZM241.421 19.352V21.08H236.141V19.352H241.421ZM250.624 16.2H252.432V25H250.624V23.528C249.984 24.536 248.928 25.192 247.552 25.192C245.2 25.192 243.488 23.288 243.488 20.6C243.488 17.912 245.232 16.008 247.536 16.008C248.928 16.008 249.984 16.696 250.624 17.704V16.2ZM247.936 23.464C249.472 23.464 250.64 22.296 250.64 20.6C250.64 18.92 249.472 17.736 247.936 17.736C246.4 17.736 245.312 18.92 245.312 20.6C245.312 22.296 246.416 23.464 247.936 23.464ZM260.397 16.2V17.896H256.349V25H254.541V16.2H260.397ZM265.907 16.008C268.739 16.008 270.531 18.2 270.355 21.096H263.203C263.347 22.712 264.483 23.608 265.955 23.608C267.011 23.608 267.891 23.16 268.307 22.296H270.179C269.491 24.264 267.811 25.192 265.939 25.192C263.267 25.192 261.363 23.272 261.363 20.616C261.363 17.96 263.251 16.008 265.907 16.008ZM265.907 17.576C264.531 17.576 263.603 18.44 263.299 19.624H268.419C268.147 18.424 267.235 17.576 265.907 17.576ZM278.599 16.2H280.407V25H278.599V21.368H273.927V25H272.119V16.2H273.927V19.656H278.599V16.2ZM290.446 23.304H292.046V27.288H290.238V25H284.318H282.51V16.2H284.318V23.304H288.638V16.2H290.446V23.304ZM294.375 12.232C295.063 12.232 295.559 12.696 295.559 13.336C295.559 13.992 295.063 14.472 294.375 14.472C293.719 14.472 293.207 13.992 293.207 13.336C293.207 12.696 293.719 12.232 294.375 12.232ZM293.479 25V16.2H295.287V25H293.479ZM300.361 16.2H304.777V25H302.969V21.816H301.225L298.937 25H296.713L299.289 21.688C298.073 21.384 297.161 20.616 297.161 19.144C297.161 17.112 298.553 16.2 300.361 16.2ZM300.505 20.328H302.969V17.832H300.457C299.337 17.832 298.985 18.376 298.985 19.112C298.985 19.832 299.433 20.328 300.505 20.328ZM191.841 42.304H193.441V46.288H191.633V44H184.177V46.288H182.369V42.304H183.905C184.305 42 184.561 41.328 184.769 40.08L185.553 35.2H191.841V42.304ZM185.873 42.304H190.033V36.896H187.089L186.561 40.16C186.401 41.184 186.177 41.856 185.873 42.304ZM197.374 35.2H203.63V44H201.822V36.896H198.91L198.334 40.576C197.902 43.2 196.926 44.192 195.422 44.192C195.134 44.192 194.814 44.144 194.526 44.096V42.464C194.702 42.48 194.878 42.512 195.054 42.512C195.902 42.512 196.27 42.048 196.542 40.416L197.374 35.2ZM208.705 35.2H213.121V44H211.313V40.816H209.569L207.281 44H205.057L207.633 40.688C206.417 40.384 205.505 39.616 205.505 38.144C205.505 36.112 206.897 35.2 208.705 35.2ZM208.849 39.328H211.313V36.832H208.801C207.681 36.832 207.329 37.376 207.329 38.112C207.329 38.832 207.777 39.328 208.849 39.328ZM226.026 39.28C227.114 39.6 227.658 40.4 227.658 41.472C227.658 43.136 226.458 44 224.506 44H220.026V35.2H224.122C226.026 35.2 227.226 35.808 227.226 37.424C227.226 38.32 226.746 38.848 226.026 39.28ZM225.402 37.76C225.402 37.056 225.082 36.624 223.978 36.624H221.834V38.832H223.946C225.034 38.832 225.402 38.384 225.402 37.76ZM224.394 42.576C225.514 42.576 225.834 42.064 225.834 41.328C225.834 40.608 225.45 40.144 224.378 40.144H221.834V42.576H224.394ZM236.249 35.2H238.057V44H236.249V42.528C235.609 43.536 234.553 44.192 233.177 44.192C230.825 44.192 229.113 42.288 229.113 39.6C229.113 36.912 230.857 35.008 233.161 35.008C234.553 35.008 235.609 35.696 236.249 36.704V35.2ZM233.561 42.464C235.097 42.464 236.265 41.296 236.265 39.6C236.265 37.92 235.097 36.736 233.561 36.736C232.025 36.736 230.937 37.92 230.937 39.6C230.937 41.296 232.041 42.464 233.561 42.464ZM250.182 35.2H251.99V44H250.182H245.174H241.062H240.166V35.2H241.974V42.304H245.174V35.2H246.982V42.304H250.182V35.2ZM258.376 35.008C260.904 35.008 262.936 36.944 262.936 39.6C262.936 42.24 260.936 44.192 258.376 44.192C255.832 44.192 253.816 42.224 253.816 39.6C253.816 36.944 255.864 35.008 258.376 35.008ZM258.376 36.736C256.856 36.736 255.64 37.904 255.64 39.6C255.64 41.296 256.84 42.464 258.376 42.464C259.912 42.464 261.112 41.296 261.112 39.6C261.112 37.904 259.896 36.736 258.376 36.736ZM270.6 35.2V36.896H266.552V44H264.744V35.2H270.6ZM276.126 35.008C278.654 35.008 280.686 36.944 280.686 39.6C280.686 42.24 278.686 44.192 276.126 44.192C273.582 44.192 271.566 42.224 271.566 39.6C271.566 36.944 273.614 35.008 276.126 35.008ZM276.126 36.736C274.606 36.736 273.39 37.904 273.39 39.6C273.39 41.296 274.59 42.464 276.126 42.464C277.662 42.464 278.862 41.296 278.862 39.6C278.862 37.904 277.646 36.736 276.126 36.736ZM292.075 35.408C294.315 35.408 296.059 37.088 296.059 39.648C296.059 42.384 294.107 44.192 291.595 44.192C289.131 44.192 287.019 42.512 287.003 38.816C287.003 32.56 290.075 31.488 294.955 31.488V33.2C290.955 33.2 289.099 33.824 288.843 37.248C289.483 36.032 290.747 35.408 292.075 35.408ZM291.515 42.624C293.035 42.624 294.251 41.504 294.251 39.744C294.251 38.064 293.115 36.96 291.611 36.96C290.123 36.96 288.827 38.048 288.827 39.744C288.827 41.504 289.995 42.624 291.515 42.624ZM298.765 31.232C299.453 31.232 299.949 31.696 299.949 32.336C299.949 32.992 299.453 33.472 298.765 33.472C298.109 33.472 297.597 32.992 297.597 32.336C297.597 31.696 298.109 31.232 298.765 31.232ZM297.869 44V35.2H299.677V44H297.869ZM307.888 39.344C308.832 39.696 309.312 40.512 309.312 41.504C309.312 43.2 307.824 44.192 305.52 44.192C302.768 44.192 301.568 42.928 301.232 41.104H303.056C303.312 42.32 304.096 42.784 305.472 42.784C306.88 42.784 307.488 42.224 307.488 41.376C307.488 40.768 307.2 40.16 305.936 40.16H304.304V38.768H305.616C306.848 38.768 307.216 38.32 307.216 37.68C307.216 36.96 306.72 36.384 305.344 36.384C304.4 36.384 303.536 36.688 303.296 37.696H301.456C301.776 36.16 302.928 35.008 305.376 35.008C307.616 35.008 309.04 35.984 309.04 37.552C309.04 38.448 308.576 39.008 307.888 39.344ZM317.474 35.2H319.282V44H317.474V40.368H312.802V44H310.994V35.2H312.802V38.656H317.474V35.2ZM325.641 35.008C328.473 35.008 330.265 37.2 330.089 40.096H322.937C323.081 41.712 324.217 42.608 325.689 42.608C326.745 42.608 327.625 42.16 328.041 41.296H329.913C329.225 43.264 327.545 44.192 325.673 44.192C323.001 44.192 321.097 42.272 321.097 39.616C321.097 36.96 322.985 35.008 325.641 35.008ZM325.641 36.576C324.265 36.576 323.337 37.44 323.033 38.624H328.153C327.881 37.424 326.969 36.576 325.641 36.576ZM336.126 44.192C333.518 44.192 331.566 42.224 331.566 39.6C331.566 36.976 333.518 35.008 336.142 35.008C338.222 35.008 340.062 36.272 340.462 38.4H338.59C338.254 37.296 337.278 36.688 336.142 36.688C334.51 36.688 333.39 37.904 333.39 39.6C333.39 41.312 334.542 42.512 336.126 42.512C337.278 42.512 338.254 41.872 338.59 40.784H340.462C340.046 42.96 338.19 44.192 336.126 44.192ZM348.064 35.2H350L344.176 48H342.24L344.56 42.88L341.088 35.2H343.024L345.52 40.928L348.064 35.2Z" fill="white"/>
</svg>
