<svg width="128" height="106" viewBox="0 0 128 106" fill="none" xmlns="http://www.w3.org/2000/svg">
<g clip-path="url(#clip0_758_617)">
<path d="M126.907 -87.251C126.96 -86.8087 126.991 -86.3589 126.991 -85.9023V105.236H-3.74707C8.67555 105.197 18.7344 95.1153 18.7344 82.6836V43.2158C18.7344 30.7601 28.8314 20.6621 41.2871 20.6621H104.437C116.892 20.6619 126.989 10.565 126.989 -1.89062V-85.3379C126.989 -85.9823 126.96 -86.6203 126.907 -87.251Z" fill="#BAF67C"/>
<path d="M127.587 105.821H5.17773C13.7474 102.625 19.8514 94.3683 19.8516 84.6846V44.8701C19.8516 32.4144 29.9486 22.3165 42.4043 22.3164H105.437C116.438 22.3162 125.598 14.4387 127.587 4.0166V105.821Z" fill="#151515"/>
</g>
<defs>
<clipPath id="clip0_758_617">
<rect width="127.989" height="106" fill="white"/>
</clipPath>
</defs>
</svg>
