<svg width="799" height="671" viewBox="0 0 799 671" fill="none" xmlns="http://www.w3.org/2000/svg">
<path d="M0.5 80C0.5 35.8172 36.3172 0 80.5 0H718.5C762.683 0 798.5 35.8172 798.5 80V591C798.5 635.183 762.683 671 718.5 671H669.971C634.928 671 606.52 642.592 606.52 607.549C606.52 572.527 578.113 544.128 543.091 544.101C431.293 544.016 374.481 544.017 257.155 544.103C222.133 544.129 193.739 572.528 193.739 607.55C193.739 642.593 165.332 671 130.29 671H80.5C36.3172 671 0.5 635.183 0.5 591V80Z" fill="#242424"/>
</svg>
