<svg width="112" height="34" viewBox="0 0 112 34" fill="none" xmlns="http://www.w3.org/2000/svg">
<path d="M18.7257 3.6H24.8157V21.114C24.8157 29.388 19.6077 33.504 12.6777 33.504C5.74766 33.504 0.539656 29.388 0.539656 21.114V3.6H6.62966V20.778C6.62966 25.902 9.14966 27.792 12.6777 27.792C16.2057 27.792 18.7257 25.902 18.7257 20.778V3.6ZM55.0051 33H47.8231L41.7331 22.878L35.7691 33H28.6291L38.1211 17.754L29.0911 3.6H36.2311L41.9011 13.05L47.6131 3.6H54.7531L45.5551 18.216L55.0051 33ZM71.285 0.659998L62.759 33H56.711L65.237 0.659998H71.285ZM93.251 3.6H99.341V21.114C99.341 29.388 94.133 33.504 87.203 33.504C80.273 33.504 75.065 29.388 75.065 21.114V3.6H81.155V20.778C81.155 25.902 83.675 27.792 87.203 27.792C90.731 27.792 93.251 25.902 93.251 20.778V3.6ZM105.499 33V3.6H111.505V33H105.499Z" fill="#BAF67C"/>
</svg>
