<svg width="14" height="13" viewBox="0 0 14 13" fill="none" xmlns="http://www.w3.org/2000/svg">
<g clip-path="url(#clip0_406_1784)">
<rect width="14" height="12" transform="translate(0 0.484375)" fill="white"/>
<path d="M6.74623 12.4841H6.6354C5.09318 12.469 3.61951 11.8263 2.53674 10.6967C1.45397 9.56696 0.850223 8.04221 0.857549 6.45588C0.864875 4.86953 1.48268 3.35073 2.57584 2.23167C3.66899 1.11261 5.14852 0.484375 6.69082 0.484375C8.23308 0.484375 9.71264 1.11261 10.8058 2.23167C11.899 3.35073 12.5168 4.86953 12.5241 6.45588C12.5314 8.04221 11.9276 9.56696 10.8449 10.6967C9.76215 11.8263 8.28843 12.469 6.74623 12.4841ZM6.44728 1.83261C6.28248 2.03736 6.10967 2.36736 5.95363 2.82486C5.68457 3.61611 5.49717 4.69686 5.45269 5.92161H8.03905C7.9953 4.69686 7.80717 3.61611 7.53811 2.82486C7.3828 2.36736 7.20998 2.03736 7.04519 1.83261C6.90373 1.65636 6.80748 1.61886 6.76446 1.61061H6.73238C6.69228 1.61586 6.59384 1.64961 6.44728 1.83261ZM4.35821 5.92161C4.40342 4.59336 4.60613 3.38211 4.92186 2.45361C4.99405 2.24061 5.07353 2.03811 5.16175 1.84911C4.30084 2.13944 3.53875 2.67723 2.96556 3.39891C2.39236 4.12059 2.03203 4.99598 1.92717 5.92161H4.35821ZM1.92717 7.04661C2.03203 7.97223 2.39236 8.84763 2.96556 9.56928C3.53875 10.291 4.30084 10.8288 5.16175 11.1191C5.0709 10.9223 4.99057 10.7205 4.92113 10.5146C4.6054 9.58608 4.40342 8.37483 4.35821 7.04661H1.92717ZM5.45269 7.04661C5.49717 8.27133 5.68457 9.35208 5.95363 10.1433C6.10967 10.6008 6.28248 10.9308 6.44728 11.1356C6.59457 11.3186 6.69228 11.3531 6.73238 11.3583L6.76446 11.3576C6.80821 11.3501 6.903 11.3118 7.04519 11.1356C7.20998 10.9308 7.3828 10.6008 7.53811 10.1433C7.8079 9.35208 7.99457 8.27133 8.03905 7.04661H5.45269ZM9.13353 7.04661C9.08905 8.37483 8.88635 9.58608 8.57062 10.5146C8.51082 10.6908 8.44593 10.8596 8.3752 11.0201C9.17305 10.6958 9.8705 10.155 10.3932 9.45521C10.9159 8.75553 11.2444 7.92311 11.3436 7.04661H9.13426H9.13353ZM11.3436 5.92161C11.2443 5.04513 10.9158 4.21275 10.3931 3.51305C9.87036 2.81335 9.17298 2.27252 8.3752 1.94811C8.44593 2.10861 8.51082 2.27811 8.57062 2.45361C8.88635 3.38211 9.08905 4.59336 9.13353 5.92161H11.3436Z" fill="#003944"/>
</g>
<defs>
<clipPath id="clip0_406_1784">
<rect width="14" height="12" fill="white" transform="translate(0 0.484375)"/>
</clipPath>
</defs>
</svg>
